# The Great Editor v0.0.1
mtllib floor_1.mtl
o floor_1
v 9.701580731382334 -17.428729222431972 0
v 9.701580731382334 -17.428729222431972 -0.1
v 11.22537738181434 -16.926709192193037 0
v 11.22537738181434 -16.926709192193037 -0.1
v 12.727350524766784 -16.41500746045408 0
v 12.727350524766784 -16.41500746045408 -0.1
v 14.43462335444514 -15.82858997492601 0
v 14.43462335444514 -15.82858997492601 -0.1
v 19.10898058194018 -14.256226100575851 0
v 19.10898058194018 -14.256226100575851 -0.1
v 19.71865002271011 -15.903504124237667 0
v 19.71865002271011 -15.903504124237667 -0.1
v 15.001518720555135 -17.561416147907707 0
v 15.001518720555135 -17.561416147907707 -0.1
v 13.310990472979277 -18.11989954386194 0
v 13.310990472979277 -18.11989954386194 -0.1
v 11.806834979278877 -18.64275110396773 0
v 11.806834979278877 -18.64275110396773 -0.1
v 10.331288119928956 -19.148977119284538 0
v 10.331288119928956 -19.148977119284538 -0.1
vt 9.701580731382334 -17.428729222431972 0
vt 11.22537738181434 -16.926709192193037 0
vt 12.727350524766784 -16.41500746045408 0
vt 14.43462335444514 -15.82858997492601 0
vt 19.10898058194018 -14.256226100575851 0
vt 19.71865002271011 -15.903504124237667 0
vt 15.001518720555135 -17.561416147907707 0
vt 13.310990472979277 -18.11989954386194 0
vt 11.806834979278877 -18.64275110396773 0
vt 10.331288119928956 -19.148977119284538 0
vn 0 0 1
vn 0 0 -1
usemtl floor_1
s off
f 19/10/1 3/2/1 1/1/1
f 2/1/2 4/2/2 20/10/2
f 19/10/1 17/9/1 3/2/1
f 4/2/2 18/9/2 20/10/2
f 17/9/1 15/8/1 3/2/1
f 4/2/2 16/8/2 18/9/2
f 15/8/1 5/3/1 3/2/1
f 4/2/2 6/3/2 16/8/2
f 15/8/1 13/7/1 5/3/1
f 6/3/2 14/7/2 16/8/2
f 13/7/1 7/4/1 5/3/1
f 6/3/2 8/4/2 14/7/2
f 13/7/1 9/5/1 7/4/1
f 8/4/2 10/5/2 14/7/2
f 13/7/1 11/6/1 9/5/1
f 10/5/2 12/6/2 14/7/2
