# The Great Editor v0.0.1
mtllib floor_1.mtl
o floor_1
v 28.44205183459804 -67.84892703105497 0
v 28.44205183459804 -67.84892703105497 -0.1
v 34.06909993397771 -56.93413336698881 0
v 34.06909993397771 -56.93413336698881 -0.1
v 35.88635843986916 -54.153494006297564 0
v 35.88635843986916 -54.153494006297564 -0.1
v 23.182637694279556 -47.7441838007565 0
v 23.182637694279556 -47.7441838007565 -0.1
v 18.347295509183947 -53.00371036736216 0
v 18.347295509183947 -53.00371036736216 -0.1
v 15.321679268739091 -55.972776185358164 0
v 15.321679268739091 -55.972776185358164 -0.1
v 18.978906390531275 -59.07000797073328 0
v 18.978906390531275 -59.07000797073328 -0.1
v 20.344773353416407 -60.11388604715015 0
v 20.344773353416407 -60.11388604715015 -0.1
v 21.445763983718 -60.88681677147604 0
v 21.445763983718 -60.88681677147604 -0.1
v 23.202537147109474 -62.362636643217996 0
v 23.202537147109474 -62.362636643217996 -0.1
v 24.65485992483193 -63.72119589743678 0
v 24.65485992483193 -63.72119589743678 -0.1
v 25.310754884208986 -64.3537061890815 0
v 25.310754884208986 -64.3537061890815 -0.1
v 27.06752804760046 -66.22762754370899 0
v 27.06752804760046 -66.22762754370899 -0.1
vt 28.44205183459804 -67.84892703105497 0
vt 34.06909993397771 -56.93413336698881 0
vt 35.88635843986916 -54.153494006297564 0
vt 23.182637694279556 -47.7441838007565 0
vt 18.347295509183947 -53.00371036736216 0
vt 15.321679268739091 -55.972776185358164 0
vt 18.978906390531275 -59.07000797073328 0
vt 20.344773353416407 -60.11388604715015 0
vt 21.445763983718 -60.88681677147604 0
vt 23.202537147109474 -62.362636643217996 0
vt 24.65485992483193 -63.72119589743678 0
vt 25.310754884208986 -64.3537061890815 0
vt 27.06752804760046 -66.22762754370899 0
vn 0 0 1
vn 0 0 -1
usemtl floor_1
s off
f 13/7/1 9/5/1 11/6/1
f 12/6/2 10/5/2 14/7/2
f 9/5/1 17/9/1 7/4/1
f 8/4/2 18/9/2 10/5/2
f 17/9/1 3/2/1 7/4/1
f 8/4/2 4/2/2 18/9/2
f 3/2/1 5/3/1 7/4/1
f 8/4/2 6/3/2 4/2/2
f 3/2/1 25/13/1 1/1/1
f 2/1/2 26/13/2 4/2/2
f 15/8/1 9/5/1 13/7/1
f 14/7/2 10/5/2 16/8/2
f 15/8/1 17/9/1 9/5/1
f 10/5/2 18/9/2 16/8/2
f 19/10/1 3/2/1 17/9/1
f 18/9/2 4/2/2 20/10/2
f 19/10/1 21/11/1 3/2/1
f 4/2/2 22/11/2 20/10/2
f 21/11/1 23/12/1 3/2/1
f 4/2/2 24/12/2 22/11/2
f 23/12/1 25/13/1 3/2/1
f 4/2/2 26/13/2 24/12/2
